<svg version="1.1" id="Layer_1" xmlns="http://www.w3.org/2000/svg" xmlns:xlink="http://www.w3.org/1999/xlink" x="0px" y="0px"
	 width="100%" viewBox="0 0 800 800" enable-background="new 0 0 800 800" xml:space="preserve">
<path fill="#060821" opacity="1.000000" stroke="none" 
	d="
M552.000000,801.000000 
	C369.500000,801.000000 187.499985,800.986572 5.500055,801.093750 
	C1.750712,801.095947 0.905242,800.249146 0.906701,796.499939 
	C1.009313,532.833313 1.009313,269.166656 0.906701,5.500036 
	C0.905242,1.750842 1.750842,0.905244 5.500036,0.906702 
	C269.166656,1.009302 532.833313,1.009302 796.499939,0.906703 
	C800.249146,0.905244 801.094788,1.750842 801.093323,5.500036 
	C800.990723,269.166656 800.990662,532.833313 801.093323,796.499939 
	C801.094788,800.249146 800.249878,801.101074 796.499878,801.095337 
	C715.166748,800.970154 633.833313,801.000000 552.000000,801.000000 
z"/>
<path fill="#00B6AF" opacity="1.000000" stroke="none" 
	d="
M233.767700,429.193176 
	C240.487442,417.353790 247.053467,405.842255 253.616745,394.329193 
	C254.181747,393.338135 254.728546,392.336670 255.561920,391.142242 
	C263.000275,387.503357 271.599365,389.690948 275.888275,395.640625 
	C278.471893,399.224701 282.910248,400.447327 286.640198,402.400360 
	C295.128021,406.844513 303.565125,411.421753 312.393127,415.194916 
	C312.999298,415.454010 313.645508,415.847504 313.935272,416.428711 
	C317.951111,424.484161 326.814697,425.649475 333.400360,430.013672 
	C338.546173,433.423737 344.258972,435.711792 348.584869,440.619690 
	C351.256622,443.650940 355.393921,445.989410 360.028900,445.918274 
	C362.423676,445.881500 364.132996,446.652435 365.299408,448.872620 
	C366.939636,451.994568 370.228485,454.048920 372.723419,455.806366 
	C379.898438,460.860657 381.358551,469.385437 386.585907,475.447388 
	C388.161804,477.274872 389.444305,479.348358 392.555908,479.578918 
	C395.894775,482.023834 397.233765,485.508179 399.091248,488.617157 
	C411.616425,509.581573 423.505035,530.916748 435.911804,551.949524 
	C441.473938,561.378723 453.559082,562.041504 460.692963,553.300659 
	C465.016296,548.003418 467.793243,541.685730 471.212311,535.801331 
	C480.314697,520.135864 489.450592,504.488800 498.383392,488.725159 
	C499.212891,487.261292 500.182220,485.932343 501.872314,484.768951 
	C502.462280,484.628540 502.708862,484.623047 503.277832,484.798859 
	C506.153900,485.835602 506.495911,488.434601 507.593048,490.326935 
	C524.923462,520.217529 542.170105,550.156738 559.409424,580.100159 
	C563.130310,586.562988 563.199768,593.039185 559.046143,599.361572 
	C555.924133,604.113892 551.513489,606.865662 545.783203,606.960449 
	C535.795898,607.125793 525.805176,607.133057 515.815918,607.133423 
	C474.519165,607.135010 433.222443,607.109192 391.462463,607.016663 
	C390.282562,606.229675 389.378479,605.439453 389.695526,604.394592 
	C392.017548,596.742432 388.135010,589.678711 387.675812,582.297241 
	C387.583099,580.806580 387.215576,579.300842 386.365906,578.035034 
	C379.381165,567.629517 373.899506,556.338623 367.290741,545.712769 
	C367.115051,545.430298 366.922638,545.155762 366.703430,544.906128 
	C350.731049,526.711487 335.305084,507.878632 316.775269,492.276642 
	C310.372284,486.885437 304.424683,481.006226 297.937469,475.835968 
	C293.006317,471.905914 286.994781,469.037384 281.348785,465.959259 
	C278.497009,464.404480 276.390228,462.836273 275.259857,459.949127 
	C273.755188,456.106110 270.546967,454.171387 266.915436,453.529327 
	C259.994293,452.305756 255.063431,447.997620 250.150070,443.626892 
	C248.710205,442.346039 247.183960,441.723236 245.492386,441.009674 
	C240.100952,438.735382 234.971695,436.030975 233.767700,429.193176 
z"/>
<path fill="#00AAB1" opacity="1.000000" stroke="none" 
	d="
M306.277161,606.673584 
	C289.181641,607.015076 272.366699,607.125732 255.551712,607.142334 
	C224.909561,607.172485 194.267258,607.182373 163.625153,607.126038 
	C152.185852,607.104980 147.010406,603.071228 143.583893,592.255920 
	C142.031769,587.356812 144.428360,583.459229 146.593063,579.677917 
	C162.771057,551.418274 179.104080,523.247375 195.385666,495.046997 
	C199.019516,488.752991 202.641998,482.452393 206.552826,475.947021 
	C213.712921,477.638336 219.611435,481.888763 226.265610,484.125000 
	C232.955185,486.373077 235.656525,493.191315 241.683685,495.964752 
	C246.642990,498.246857 251.296829,500.762482 253.725449,506.292847 
	C254.858810,508.873688 257.857361,510.041229 260.795990,510.473206 
	C262.112152,510.666687 264.077301,510.461731 264.564362,511.422546 
	C267.214966,516.651062 273.368805,518.554382 275.834503,524.090393 
	C278.183838,529.365173 280.780334,534.591492 283.827789,539.544373 
	C284.177734,540.113098 284.474915,540.800415 285.044647,541.107361 
	C293.808990,545.828674 294.998413,555.541931 299.227905,563.134644 
	C305.700714,574.754395 307.270599,587.834229 308.206818,600.927246 
	C308.352173,602.959900 308.361359,604.953735 306.277161,606.673584 
z"/>
<path fill="#00B1B0" opacity="1.000000" stroke="none" 
	d="
M306.460266,607.023071 
	C306.170135,594.929077 303.582611,583.242737 300.516998,571.814758 
	C298.726593,565.140381 294.535217,559.083984 291.231415,552.851624 
	C289.223999,549.064819 287.366089,545.553223 282.808014,543.321838 
	C279.965881,541.930481 278.785400,536.816895 277.257568,533.205200 
	C276.479767,531.366516 275.539368,529.674316 274.656860,527.917358 
	C272.875580,524.370972 269.342346,522.234253 267.407349,519.584595 
	C264.085449,515.035889 260.502502,513.077026 255.604477,511.643158 
	C253.766312,511.105042 251.802032,509.093292 250.998657,507.267792 
	C248.134155,500.758789 241.912170,499.281372 236.381912,496.670349 
	C235.511520,496.259430 234.421371,495.735809 234.036179,494.963409 
	C229.422440,485.711853 219.776352,484.482544 211.609695,481.131897 
	C209.019348,480.069092 207.964081,478.649445 206.991547,476.093689 
	C213.551147,462.286804 221.915680,449.773651 229.129578,436.604767 
	C230.483994,434.132294 231.963531,431.728333 233.653717,429.079224 
	C238.222855,433.700684 242.175323,439.105988 249.827103,438.368378 
	C250.228943,438.329651 250.931122,438.706726 251.072388,439.059052 
	C254.886475,448.571167 264.334442,449.400635 272.151337,452.623108 
	C274.871887,453.744629 276.750366,455.154297 277.300629,458.082184 
	C278.000275,461.804810 281.440247,462.247223 283.940460,464.033783 
	C292.724915,470.310822 303.231781,474.445618 309.485565,483.986084 
	C310.102448,484.927246 311.051483,486.101990 312.017731,486.290680 
	C319.074493,487.668762 322.271790,493.918915 326.909821,498.177582 
	C335.470367,506.037903 343.444031,514.538025 351.643890,522.789795 
	C352.568756,523.720520 353.875641,524.648010 354.149719,525.783508 
	C355.288300,530.501160 358.863220,533.301208 361.985962,536.484192 
	C366.155182,540.733887 370.335449,544.786072 372.883423,550.511414 
	C375.122437,555.542542 380.002319,559.514038 381.740845,564.625305 
	C384.389496,572.412170 392.071533,578.072388 391.089539,587.316345 
	C390.923401,588.880188 391.614014,590.574158 392.077545,592.158569 
	C393.482269,596.960144 393.560608,601.654785 391.116943,606.579834 
	C362.974121,606.993042 334.949036,607.046204 306.460266,607.023071 
z"/>
<path fill="#00D2AA" opacity="1.000000" stroke="none" 
	d="
M599.205383,319.124908 
	C598.697449,320.336487 598.243713,321.264740 597.566223,322.412476 
	C594.440369,322.911652 592.884399,321.584381 592.913818,318.679352 
	C592.956787,314.431580 590.573669,312.262970 587.030151,310.350311 
	C583.162292,308.262604 579.257019,305.964386 576.374023,301.883545 
	C575.809753,298.621399 577.545410,296.447968 578.851501,294.182068 
	C590.078735,274.704346 601.351440,255.252853 612.631592,235.805649 
	C617.793884,226.905853 616.965027,225.488495 606.625000,225.486969 
	C554.821472,225.479355 503.017975,225.492249 451.214478,225.470032 
	C447.892822,225.468597 444.543915,225.728043 440.914795,224.651825 
	C438.095856,218.513824 436.993713,212.165787 435.056854,206.065933 
	C433.856812,202.286636 436.112488,200.502701 440.438416,200.100266 
	C442.612671,199.897980 444.740295,200.207214 447.537689,200.005737 
	C443.835693,200.032486 440.779724,200.124039 437.735443,200.056946 
	C435.143921,199.999817 432.744324,199.216888 433.755524,195.365417 
	C442.488312,194.989059 450.979858,194.857666 459.471497,194.854538 
	C518.447021,194.832733 577.422546,194.830307 636.398071,194.853119 
	C639.705994,194.854401 643.076050,194.514725 646.282043,195.715073 
	C657.358337,199.862167 661.669861,211.481445 655.766907,221.828247 
	C645.817322,239.267914 635.893494,256.727844 625.554382,273.936279 
	C622.452881,279.098328 619.391602,284.313599 615.964600,289.709351 
	C615.510071,290.497467 615.515686,291.052704 615.170044,291.751526 
	C614.990417,291.948730 615.018494,291.998627 614.989990,292.001343 
	C614.698303,292.273468 614.459351,292.562653 614.189087,293.150421 
	C613.025696,295.507568 611.921509,297.589050 610.586304,299.895294 
	C609.645996,300.341827 609.518738,300.955139 609.213806,301.825195 
	C606.365906,306.861725 603.688171,311.636505 600.822571,316.715271 
	C600.114197,317.579865 599.515320,318.081268 599.205383,319.124908 
z"/>
<path fill="#01C7AA" opacity="1.000000" stroke="none" 
	d="
M298.268219,317.174713 
	C291.631348,308.449158 287.109436,298.861206 281.753265,289.780853 
	C271.754639,272.830200 262.030945,255.717377 252.132248,238.323853 
	C250.249283,234.350357 251.504669,232.208908 255.100266,230.596298 
	C261.840576,227.573288 267.940002,223.012894 275.954926,222.466980 
	C277.357452,223.401642 278.097778,224.472717 279.295288,225.605774 
	C280.055725,226.409073 280.521118,226.974716 281.126648,227.889709 
	C290.464874,243.859985 299.335236,259.682190 308.497833,275.335938 
	C308.918152,276.054016 309.303802,276.792053 309.734863,277.504791 
	C313.417480,283.593811 314.462036,283.477509 318.162018,277.161652 
	C323.881653,267.398163 329.275909,257.446533 335.175751,247.788666 
	C343.775085,233.711777 363.053131,234.019241 370.797302,248.178833 
	C372.793427,251.828629 375.109467,255.297318 377.173126,258.910248 
	C394.505707,289.255280 412.044128,319.481628 429.510071,349.749725 
	C430.922943,352.198242 432.285034,354.680450 433.133606,357.769104 
	C430.411407,362.834839 428.598480,363.260620 424.777649,359.985107 
	C423.756317,359.109558 422.783752,358.061584 421.473297,357.838348 
	C413.645691,356.505066 407.280334,351.576752 400.494690,348.207275 
	C392.154327,344.065765 383.408875,340.462830 375.435150,335.439514 
	C371.582153,333.012115 367.050232,331.849365 363.163055,329.140381 
	C359.252777,326.415314 354.533875,324.952423 349.472260,325.411133 
	C347.147064,325.621857 344.822113,325.294281 342.802368,323.860962 
	C342.119080,323.376038 341.149200,322.836395 340.483429,323.140198 
	C335.985443,325.192719 333.255676,322.660309 330.332428,319.580444 
	C327.559814,319.488220 326.730042,317.560120 325.685699,315.867493 
	C322.536743,310.763672 319.667114,305.492523 316.512939,300.395569 
	C314.230743,296.707703 313.406891,296.865173 311.038757,300.493408 
	C307.336578,306.165527 305.212769,312.870026 299.579529,317.565491 
	C298.987762,317.557281 298.753632,317.496796 298.268219,317.174713 
z"/>
<path fill="#00CDAA" opacity="1.000000" stroke="none" 
	d="
M276.158569,224.060928 
	C268.583618,226.909561 261.632111,230.060928 254.906799,233.749924 
	C253.150803,234.713120 252.572998,235.800568 252.181625,237.714127 
	C248.557251,232.002686 244.704483,226.199570 241.602386,220.019638 
	C235.999725,208.858170 243.820816,195.320969 256.312073,195.095047 
	C279.273743,194.679779 302.246796,194.863586 325.215118,194.854813 
	C361.168152,194.841064 397.121155,194.874817 433.535461,194.974762 
	C435.160645,197.598999 437.444824,197.927185 439.833618,197.961380 
	C443.308685,198.011093 446.788361,197.907288 450.258667,198.049332 
	C452.102905,198.124802 454.995483,197.534241 454.974274,200.227386 
	C454.955200,202.655060 452.179291,201.863327 450.515564,201.954498 
	C447.709808,202.108215 444.884888,201.907639 442.078339,202.053848 
	C437.467468,202.294067 436.496796,203.759705 438.082092,208.103500 
	C439.694672,212.522095 442.687744,216.618973 441.010590,222.108337 
	C440.573547,224.499054 438.994293,224.953369 437.277954,225.201782 
	C435.625977,225.440857 433.959656,225.465805 432.294708,225.467026 
	C383.351471,225.503036 334.408264,225.490387 285.465027,225.478668 
	C282.453461,225.477936 279.471680,225.345154 276.158569,224.060928 
z"/>
<path fill="#01BCAD" opacity="1.000000" stroke="none" 
	d="
M297.845581,317.287109 
	C298.016937,316.913147 298.303497,316.939789 298.382233,316.958313 
	C301.759613,316.905640 302.350891,319.884857 303.483765,321.855469 
	C313.847321,339.882294 324.275055,357.872833 334.756989,375.829865 
	C343.135315,390.183105 351.097626,404.770569 359.458191,419.134491 
	C363.133148,425.448242 366.556549,431.907532 370.478455,438.089630 
	C371.591736,439.844482 372.582336,441.954407 371.114197,444.504272 
	C366.035614,446.916595 362.198883,445.747162 359.577271,441.626007 
	C357.033569,437.627441 352.379211,436.457489 348.500916,434.805786 
	C342.437439,432.223511 336.624786,429.084167 330.461884,426.735352 
	C329.214905,426.260071 328.036835,425.273956 327.602844,424.053101 
	C325.606201,418.436554 320.449585,417.251312 315.819702,415.121033 
	C309.383667,412.159637 303.324127,408.353271 296.737762,405.759338 
	C291.267792,403.605042 287.503052,398.850372 282.002167,396.899536 
	C281.355103,396.670044 280.690704,396.290924 280.475006,395.692200 
	C278.523041,390.273163 273.012512,389.374969 268.895203,386.980835 
	C263.621338,383.914215 263.052338,383.748657 264.784119,377.998840 
	C265.010620,377.246826 265.398499,376.547821 265.105530,375.367676 
	C274.286407,358.775879 283.548706,342.545502 292.803864,326.311035 
	C294.442657,323.436462 296.051544,320.544830 297.845581,317.287109 
z"/>
<path fill="#01C7AA" opacity="1.000000" stroke="none" 
	d="
M565.382812,377.360657 
	C555.856689,395.011688 546.158447,412.212036 535.437866,429.149384 
	C527.973938,435.425842 522.540894,429.707916 516.968018,426.420166 
	C514.145325,424.754822 511.301819,423.027649 508.357483,420.816132 
	C506.940125,418.571960 508.180817,416.982574 509.039307,415.439728 
	C518.743042,398.001068 528.744324,380.732910 538.940430,363.578033 
	C539.767639,362.186371 540.520874,360.554901 542.966064,360.524597 
	C551.356750,359.227142 556.951782,364.479004 563.057678,368.013397 
	C566.307312,369.894470 565.759460,373.646515 565.382812,377.360657 
z"/>
<path fill="#00CDAA" opacity="1.000000" stroke="none" 
	d="
M565.681335,377.471191 
	C561.996521,367.364960 553.104492,364.473053 543.398193,362.096649 
	C539.977051,359.304962 542.733521,357.055511 543.859253,355.024261 
	C550.367126,343.281860 557.161011,331.699554 563.903137,320.089142 
	C566.899170,314.929626 569.669434,309.638489 572.903137,304.617493 
	C573.877258,303.105042 574.620850,301.272034 577.305847,301.732788 
	C582.991089,303.269745 586.607422,307.732635 591.743225,309.669434 
	C594.380432,310.663971 596.177734,313.608704 595.676758,316.965759 
	C595.392212,318.872253 595.590149,320.546661 597.117310,322.323608 
	C587.488098,339.676697 577.632996,356.721039 567.781372,373.767426 
	C567.130859,374.892975 566.507812,376.034363 565.681335,377.471191 
z"/>
<path fill="#00C0AC" opacity="1.000000" stroke="none" 
	d="
M508.990234,419.968903 
	C514.842407,420.388641 518.591614,424.378510 522.882263,426.960938 
	C526.474121,429.122772 529.310181,430.864563 533.179260,428.223938 
	C533.769165,427.821320 534.449524,428.185547 534.993652,429.055298 
	C535.400391,430.307281 534.728455,430.857788 533.955811,431.712891 
	C533.493225,432.447632 533.145081,432.883026 532.999084,433.719910 
	C523.354187,450.765381 513.733887,467.534332 503.856934,484.641724 
	C503.600281,484.980164 503.609955,484.973083 503.576965,484.990570 
	C502.254425,485.162292 501.304352,484.622498 500.673798,483.530670 
	C496.004700,475.445557 490.321930,467.910889 487.169891,458.562500 
	C486.802185,457.718964 486.685333,457.214905 486.760437,456.299774 
	C491.184601,443.943329 498.663696,433.650055 504.770813,422.621521 
	C505.537659,421.236755 506.529327,419.677917 508.990234,419.968903 
z"/>
<path fill="#01BBAD" opacity="1.000000" stroke="none" 
	d="
M264.760315,375.214996 
	C265.399017,375.330658 266.132935,375.711578 266.091797,375.968323 
	C264.617859,385.167725 272.753143,385.225281 277.739807,388.254089 
	C278.442749,388.681030 279.718353,388.840698 279.879852,389.378906 
	C281.482544,394.718811 287.876617,394.893402 290.339203,399.236786 
	C290.418976,399.377472 290.539673,399.528229 290.679321,399.596893 
	C299.423523,403.895538 308.176239,408.176788 316.917603,412.481079 
	C321.803528,414.886902 327.617188,415.281982 329.923920,422.173370 
	C331.232849,426.083618 337.192627,426.503448 341.060883,428.492188 
	C345.486328,430.767334 350.753784,431.237000 354.590240,434.741150 
	C355.821381,435.865692 357.285889,435.904602 358.763580,436.063995 
	C360.331055,436.233032 362.207275,436.700806 362.166107,438.379822 
	C362.035248,443.714691 366.072968,443.189026 369.701569,443.934204 
	C371.526184,443.245209 372.530060,444.007141 373.735046,445.203613 
	C374.921021,446.513000 375.429871,447.810699 376.242950,449.339417 
	C381.727997,458.360474 386.695557,467.274628 391.793884,476.111725 
	C392.717865,477.713348 394.265778,479.431427 392.383057,481.759674 
	C384.683289,478.647095 381.506470,471.721100 378.172699,465.110046 
	C377.116760,463.016113 376.483826,461.233002 373.927582,460.984741 
	C371.902496,460.788055 370.500122,459.773407 369.968933,457.749176 
	C369.340210,455.353271 367.772034,454.132477 365.345245,453.882874 
	C364.861694,453.833160 364.108978,453.722809 363.967682,453.416016 
	C360.763031,446.458374 352.824188,448.111115 347.811371,444.481201 
	C347.276337,444.093750 346.562012,443.821716 346.231293,443.304199 
	C341.166412,435.377686 332.112732,433.399567 324.909454,428.648285 
	C320.564575,425.782410 314.321625,425.782227 311.977081,419.041229 
	C310.985260,416.189514 305.272583,414.937012 301.657654,413.049500 
	C294.826447,409.482605 288.059204,405.768799 281.071320,402.535461 
	C276.992920,400.648376 273.096161,399.219757 271.706207,394.166107 
	C271.227020,392.423859 268.341248,391.936615 266.359406,392.377411 
	C262.886505,393.149841 259.775879,392.110016 256.219238,391.036560 
	C256.415924,389.765503 256.991821,388.586548 257.821686,387.196228 
	C258.349518,386.681854 258.600677,386.361298 258.894409,385.722351 
	C259.121918,385.001373 259.280640,384.578491 259.646484,384.051819 
	C260.402191,383.603638 260.487854,383.022675 260.802368,382.242554 
	C262.159210,379.822937 263.326660,377.622650 264.760315,375.214996 
z"/>
<path fill="#01C7AA" opacity="1.000000" stroke="none" 
	d="
M533.208984,433.821716 
	C532.608215,433.264404 532.656128,432.637177 533.625000,432.096985 
	C533.694153,432.549133 533.568848,433.098053 533.208984,433.821716 
z"/>
<path fill="#00CDAA" opacity="1.000000" stroke="none" 
	d="
M599.389404,319.244507 
	C599.489624,318.726990 599.827942,318.045776 600.400513,317.191895 
	C600.298950,317.706421 599.963257,318.393585 599.389404,319.244507 
z"/>
<path fill="#00B6AF" opacity="1.000000" stroke="none" 
	d="
M260.741180,382.176788 
	C260.735199,382.522522 260.478638,383.021820 260.037842,383.734589 
	C260.065948,383.408813 260.278259,382.869598 260.741180,382.176788 
z"/>
<path fill="#00CDAA" opacity="1.000000" stroke="none" 
	d="
M609.305298,301.926544 
	C609.337463,301.569427 609.631287,301.051941 610.140137,300.327271 
	C610.092407,300.668732 609.829712,301.217438 609.305298,301.926544 
z"/>
<path fill="#00CDAA" opacity="1.000000" stroke="none" 
	d="
M615.219666,291.783936 
	C615.175964,291.461487 615.361572,290.974213 615.684448,290.264130 
	C615.697510,290.567230 615.573242,291.093170 615.219666,291.783936 
z"/>
<path fill="#00B6AF" opacity="1.000000" stroke="none" 
	d="
M258.715576,385.618469 
	C258.773682,385.776672 258.584137,386.129028 258.235138,386.733093 
	C258.206421,386.594086 258.337158,386.203400 258.715576,385.618469 
z"/>
<path fill="#00CDAA" opacity="1.000000" stroke="none" 
	d="
M614.367065,293.258850 
	C614.302979,293.102905 614.476074,292.779724 614.805298,292.230347 
	C614.842407,292.366608 614.723328,292.729126 614.367065,293.258850 
z"/>
<path fill="#060821" opacity="1.000000" stroke="none" 
	d="
M392.392975,482.129974 
	C386.574188,471.592499 380.762054,461.385071 374.113220,451.269714 
	C373.060883,449.995789 372.309479,448.945770 372.069244,447.295563 
	C371.607269,446.048859 371.142548,445.126923 370.387085,444.088287 
	C366.833313,435.717163 361.695923,428.465210 357.389191,420.790924 
	C342.893524,394.960693 327.881744,369.420349 313.105011,343.747467 
	C308.137115,335.116394 303.281830,326.420532 298.418030,317.365540 
	C303.424133,308.364990 308.387299,299.753143 313.712219,290.513611 
	C319.351959,299.671570 324.652679,308.527039 329.675415,317.906738 
	C333.698975,320.277496 335.834808,324.057465 337.828369,327.468445 
	C354.777100,356.467651 371.924713,385.355957 388.149689,414.773285 
	C388.308197,415.060699 388.562622,415.293457 389.018066,415.811798 
	C395.238312,424.690826 399.614685,434.230103 404.928925,443.226990 
	C418.876801,466.840546 432.195251,490.817078 446.065399,514.474976 
	C448.261322,518.220520 450.006500,518.372070 452.108307,514.612305 
	C461.518005,497.780365 471.917114,481.508362 480.760254,463.947235 
	C481.626648,461.742828 483.798828,461.087311 484.799194,458.955383 
	C485.885437,457.545349 486.904907,456.881317 488.690186,457.695038 
	C493.893555,466.689758 498.773590,475.461395 503.598816,484.620544 
	C490.681213,507.294281 477.811157,529.576294 464.959869,551.869202 
	C460.966858,558.795898 455.096375,562.485046 447.021759,561.932434 
	C441.815186,561.576111 437.250977,559.412231 434.559357,554.773193 
	C426.198242,540.362976 418.081726,525.811035 409.774353,511.369324 
	C404.169037,501.624908 398.401581,491.973816 392.392975,482.129974 
z"/>
<path fill="#00B1B0" opacity="1.000000" stroke="none" 
	d="
M243.029251,432.811096 
	C243.030243,433.259216 242.971207,433.369781 243.029251,432.811096 
z"/>
<path fill="#060821" opacity="1.000000" stroke="none" 
	d="
M509.491455,419.697510 
	C502.599792,431.722870 495.827179,443.439819 488.993835,455.501770 
	C487.638031,456.781769 486.488892,456.385925 485.100586,455.222046 
	C477.468506,443.695862 471.201111,431.778503 464.347656,420.205719 
	C453.847198,402.474670 444.078613,384.318817 433.404999,366.689423 
	C431.843536,364.110382 431.369690,361.489563 431.222931,358.332092 
	C419.634888,338.181549 408.295898,318.307434 396.889465,298.472046 
	C387.630432,282.370880 378.207123,266.363617 369.027344,250.217667 
	C365.340668,243.733337 360.238586,239.960007 352.635468,240.041611 
	C344.998169,240.123566 340.054077,244.247070 336.432312,250.632355 
	C329.158661,263.456055 321.729279,276.191467 313.855164,289.845917 
	C302.137817,269.546173 290.841248,249.975357 279.271545,230.202484 
	C278.529114,229.392288 277.750336,229.116470 277.272583,228.171158 
	C277.229401,226.651688 276.877991,225.544571 275.849701,224.308502 
	C277.184418,221.586014 279.594666,222.748337 281.554352,222.745071 
	C334.395081,222.657043 387.235992,222.656799 440.539246,222.560822 
	C443.159790,222.548981 445.317963,222.678009 447.476105,222.678452 
	C504.043793,222.689926 560.611511,222.686127 617.179199,222.691605 
	C622.877563,222.692154 622.999756,222.781937 620.182373,227.689392 
	C608.653625,247.770905 597.038574,267.802826 585.467834,287.860260 
	C582.910950,292.292450 580.405457,296.754272 577.763672,301.546539 
	C566.146484,321.698486 554.641846,341.506348 543.076965,361.661865 
	C531.881287,381.136078 520.745911,400.262604 509.491455,419.697510 
z"/>
<path fill="#00CDAA" opacity="1.000000" stroke="none" 
	d="
M584.056885,296.962769 
	C586.642822,298.680115 585.555054,300.393250 584.154053,301.889526 
	C583.549133,302.535675 582.430786,302.188202 582.014404,301.425873 
	C580.873779,299.337555 582.125366,298.046997 584.056885,296.962769 
z"/>
<path fill="#00CDAA" opacity="1.000000" stroke="none" 
	d="
M606.556030,301.105103 
	C606.139343,302.236053 605.543640,302.667786 604.782410,301.791107 
	C604.568054,301.544281 604.612122,300.770874 604.843323,300.496155 
	C605.535889,299.673096 606.191162,299.810272 606.556030,301.105103 
z"/>
<path fill="#00C0AC" opacity="1.000000" stroke="none" 
	d="
M430.836914,358.299561 
	C444.719696,381.647919 458.444824,405.251984 472.148407,428.868530 
	C476.800354,436.885590 481.397888,444.934143 486.110229,453.299194 
	C486.839508,455.932861 486.163147,457.808289 484.137787,459.011749 
	C481.972839,460.298096 480.369873,458.968384 478.836517,457.573975 
	C477.711212,456.550690 476.371338,455.883606 474.934265,455.408600 
	C465.935272,452.434052 457.709503,447.592010 449.426544,443.281403 
	C441.244171,439.023193 432.940491,434.782898 424.651520,430.821625 
	C415.895844,426.637329 409.353760,419.293518 400.251923,415.746552 
	C396.957764,414.462830 394.712463,413.047424 392.073303,416.275085 
	C391.211243,417.329376 389.760132,417.518555 388.052429,417.713867 
	C375.585815,396.947662 363.474945,376.159637 351.394989,355.353668 
	C344.314545,343.158661 337.283325,330.935028 330.105682,318.402344 
	C330.426208,316.773804 330.925720,315.432526 332.682617,315.783051 
	C334.320435,316.109833 334.584991,317.387939 334.524963,318.852600 
	C334.399963,321.901855 335.813904,322.118439 337.744019,320.324768 
	C339.902496,318.318848 341.684631,318.097839 343.509338,320.649994 
	C344.916260,322.617737 347.040222,323.050781 349.280640,322.969299 
	C356.692322,322.699829 363.219452,324.654633 368.830139,329.793335 
	C370.288605,331.129120 372.840179,331.218201 374.819061,332.048309 
	C382.363708,335.213257 389.986359,338.789337 396.703552,342.983276 
	C403.126862,346.993744 410.674652,348.314056 416.726898,353.282776 
	C419.911316,355.897156 425.592957,355.867981 429.063293,359.442200 
	C429.176361,359.558685 430.116333,358.872314 430.836914,358.299561 
z"/>
<path fill="#00CDAA" opacity="1.000000" stroke="none" 
	d="
M277.118134,228.115356 
	C278.038025,228.104462 278.612244,228.599121 278.949738,229.705811 
	C278.066559,229.772400 276.822296,229.915451 277.118134,228.115356 
z"/>
<path fill="#01BBAD" opacity="1.000000" stroke="none" 
	d="
M387.806976,418.043152 
	C388.215454,416.904816 388.703217,416.034393 389.285950,415.233032 
	C394.145966,408.549805 394.440277,408.610474 401.133820,413.423859 
	C403.530121,415.147064 406.399628,416.223450 409.084167,417.531342 
	C411.653442,418.782990 414.168518,420.127808 415.729767,422.623901 
	C417.737976,425.834503 421.605621,425.508423 424.300262,427.315216 
	C432.410980,432.753632 441.586029,436.202576 450.159851,440.724152 
	C458.810425,445.286224 467.486755,450.283569 476.977203,453.277130 
	C478.209473,453.665833 479.711639,454.171326 480.405396,455.121582 
	C483.008759,458.687439 484.371155,456.487579 486.019897,453.919922 
	C486.906921,454.347046 487.613678,455.064056 488.626770,455.813934 
	C488.954071,456.307068 488.974976,456.767334 489.004700,457.572845 
	C487.565002,457.618103 487.180603,458.791046 486.303406,459.841431 
	C484.637726,461.252197 484.082947,462.972473 483.220367,464.900696 
	C471.937531,484.750000 460.804443,504.300110 449.221863,524.639526 
	C443.240784,514.337646 437.671112,504.808929 432.162964,495.244720 
	C417.404663,469.618988 402.672729,443.978027 387.806976,418.043152 
z"/>
<path fill="#01BCAD" opacity="1.000000" stroke="none" 
	d="
M371.951416,447.222046 
	C372.702515,448.089294 373.333038,449.207794 373.930328,450.663086 
	C372.403870,450.295715 371.263885,449.384552 371.951416,447.222046 
z"/>
<path fill="#00C0AC" opacity="1.000000" stroke="none" 
	d="
M483.341309,465.000122 
	C483.180878,463.253174 483.458191,461.386017 485.710205,460.160889 
	C485.218231,461.607147 484.415131,463.203735 483.341309,465.000122 
z"/>
</svg>